<?xml version="1.0" encoding="UTF-8" standalone="no"?>
<!DOCTYPE svg PUBLIC "-//W3C//DTD SVG 1.0//EN" "http://www.w3.org/TR/2001/PR-SVG-20010719/DTD/svg10.dtd">
<svg width="21cm" height="23cm" viewBox="77 38 418 445" xmlns="http://www.w3.org/2000/svg" xmlns:xlink="http://www.w3.org/1999/xlink">
  <line style="fill: none; fill-opacity:0; stroke-width: 2; stroke: #000000" x1="300" y1="80" x2="80" y2="80"/>
  <line style="fill: none; fill-opacity:0; stroke-width: 2; stroke: #000000" x1="300" y1="120" x2="80" y2="120"/>
  <text font-size="12.8" style="fill: #000000;text-anchor:start;font-family:sans-serif;font-style:normal;font-weight:normal" x="140" y="60">
    <tspan x="140" y="60">0..0x1f Register</tspan>
  </text>
  <text font-size="12.8" style="fill: #000000;text-anchor:start;font-family:sans-serif;font-style:normal;font-weight:normal" x="120" y="100">
    <tspan x="120" y="100">0x20..0x5f IO Register</tspan>
  </text>
  <text font-size="12.8" style="fill: #000000;text-anchor:start;font-family:sans-serif;font-style:normal;font-weight:normal" x="90" y="140">
    <tspan x="90" y="140">0x60 .. RAMSTART </tspan>
    <tspan x="90" y="156">IO Register</tspan>
  </text>
  <line style="fill: none; fill-opacity:0; stroke-width: 2; stroke: #000000" x1="190" y1="120" x2="190" y2="160"/>
  <line style="fill: none; fill-opacity:0; stroke-width: 2; stroke: #000000" x1="80" y1="160" x2="190" y2="160"/>
  <text font-size="12.8" style="fill: #000000;text-anchor:start;font-family:sans-serif;font-style:normal;font-weight:normal" x="319" y="173">
    <tspan x="319" y="173">RAMSTART</tspan>
  </text>
  <line style="fill: none; fill-opacity:0; stroke-width: 2; stroke: #000000" x1="300" y1="180" x2="80" y2="180"/>
  <text font-size="12.8" style="fill: #000000;text-anchor:start;font-family:sans-serif;font-style:normal;font-weight:normal" x="150" y="230">
    <tspan x="150" y="230">ISR Vectors</tspan>
  </text>
  <text font-size="12.8" style="fill: #000000;text-anchor:start;font-family:sans-serif;font-style:normal;font-weight:normal" x="150" y="200">
    <tspan x="150" y="200">1st User Area</tspan>
  </text>
  <line style="fill: none; fill-opacity:0; stroke-width: 2; stroke: #000000" x1="300" y1="240" x2="80" y2="240"/>
  <line style="fill: none; fill-opacity:0; stroke-width: 2; stroke: #000000" x1="300" y1="210" x2="80" y2="210"/>
  <text font-size="12.8" style="fill: #000000;text-anchor:start;font-family:sans-serif;font-style:normal;font-weight:normal" x="150" y="260">
    <tspan x="150" y="260">Terminal Input Buffer</tspan>
  </text>
  <line style="fill: none; fill-opacity:0; stroke-width: 2; stroke: #000000" x1="300" y1="270" x2="80" y2="270"/>
  <line style="fill: none; fill-opacity:0; stroke-width: 2; stroke: #000000" x1="300" y1="40" x2="80" y2="40"/>
  <line style="fill: none; fill-opacity:0; stroke-width: 2; stroke: #000000" x1="298.5" y1="411" x2="78.5" y2="411"/>
  <text font-size="12.8" style="fill: #000000;text-anchor:start;font-family:sans-serif;font-style:normal;font-weight:normal" x="136" y="406">
    <tspan x="136" y="406">Data Stack </tspan>
  </text>
  <line style="fill: none; fill-opacity:0; stroke-width: 2; stroke: #000000" x1="300" y1="459" x2="80" y2="459"/>
  <text font-size="12.8" style="fill: #000000;text-anchor:start;font-family:sans-serif;font-style:normal;font-weight:normal" x="124.5" y="450.5">
    <tspan x="124.5" y="450.5">Return Stack</tspan>
  </text>
  <line style="fill: none; fill-opacity:0; stroke-width: 2; stroke: #000000" x1="300" y1="460" x2="80" y2="460"/>
  <text font-size="12.8" style="fill: #000000;text-anchor:start;font-family:sans-serif;font-style:normal;font-weight:normal" x="343" y="463">
    <tspan x="343" y="463">RAMEND</tspan>
  </text>
  <g>
    <polygon style="fill: #ffffff" points="226.5,458.5 226.5,443.5 219,443.5 234,428.5 249,443.5 241.5,443.5 241.5,458.5 "/>
    <polygon style="fill: none; fill-opacity:0; stroke-width: 2; stroke: #000000" points="226.5,458.5 226.5,443.5 219,443.5 234,428.5 249,443.5 241.5,443.5 241.5,458.5 "/>
    <polygon style="fill: none; fill-opacity:0; stroke-width: 2; stroke: #000000" points="226.5,458.5 226.5,443.5 219,443.5 234,428.5 249,443.5 241.5,443.5 241.5,458.5 "/>
  </g>
  <g>
    <polygon style="fill: #ffffff" points="227.5,410.5 227.5,395.5 220,395.5 235,380.5 250,395.5 242.5,395.5 242.5,410.5 "/>
    <polygon style="fill: none; fill-opacity:0; stroke-width: 2; stroke: #000000" points="227.5,410.5 227.5,395.5 220,395.5 235,380.5 250,395.5 242.5,395.5 242.5,410.5 "/>
    <polygon style="fill: none; fill-opacity:0; stroke-width: 2; stroke: #000000" points="227.5,410.5 227.5,395.5 220,395.5 235,380.5 250,395.5 242.5,395.5 242.5,410.5 "/>
  </g>
  <g>
    <polygon style="fill: #ffffff" points="103.5,310 103.5,325 96,325 111,340 126,325 118.5,325 118.5,310 "/>
    <polygon style="fill: none; fill-opacity:0; stroke-width: 2; stroke: #000000" points="103.5,310 103.5,325 96,325 111,340 126,325 118.5,325 118.5,310 "/>
    <polygon style="fill: none; fill-opacity:0; stroke-width: 2; stroke: #000000" points="103.5,310 103.5,325 96,325 111,340 126,325 118.5,325 118.5,310 "/>
  </g>
  <line style="fill: none; fill-opacity:0; stroke-width: 2; stroke: #000000" x1="80" y1="460" x2="80" y2="40"/>
  <line style="fill: none; fill-opacity:0; stroke-width: 2; stroke: #000000" x1="300" y1="460" x2="300" y2="40"/>
  <text font-size="12.8" style="fill: #000000;text-anchor:start;font-family:sans-serif;font-style:normal;font-weight:normal" x="150" y="480">
    <tspan x="150" y="480">XRAM follows</tspan>
  </text>
  <g>
    <line style="fill: none; fill-opacity:0; stroke-width: 2; stroke: #000000" x1="309.736" y1="180" x2="340" y2="180"/>
    <polygon style="fill: #000000" points="302.236,180 312.236,175 309.736,180 312.236,185 "/>
    <polygon style="fill: none; fill-opacity:0; stroke-width: 2; stroke: #000000" points="302.236,180 312.236,175 309.736,180 312.236,185 "/>
  </g>
  <g>
    <line style="fill: none; fill-opacity:0; stroke-width: 2; stroke: #000000" x1="308.736" y1="458.5" x2="339" y2="458.5"/>
    <polygon style="fill: #000000" points="301.236,458.5 311.236,453.5 308.736,458.5 311.236,463.5 "/>
    <polygon style="fill: none; fill-opacity:0; stroke-width: 2; stroke: #000000" points="301.236,458.5 311.236,453.5 308.736,458.5 311.236,463.5 "/>
  </g>
  <g>
    <line style="fill: none; fill-opacity:0; stroke-width: 2; stroke: #000000" x1="311.236" y1="410.5" x2="341.5" y2="410.5"/>
    <polygon style="fill: #000000" points="303.736,410.5 313.736,405.5 311.236,410.5 313.736,415.5 "/>
    <polygon style="fill: none; fill-opacity:0; stroke-width: 2; stroke: #000000" points="303.736,410.5 313.736,405.5 311.236,410.5 313.736,415.5 "/>
  </g>
  <text font-size="12.8" style="fill: #000000;text-anchor:start;font-family:sans-serif;font-style:normal;font-weight:normal" x="345" y="412">
    <tspan x="345" y="412">stackstart</tspan>
  </text>
  <text font-size="12.8" style="fill: #000000;text-anchor:start;font-family:sans-serif;font-style:normal;font-weight:normal" x="401.5" y="462">
    <tspan x="401.5" y="462">rstackstart</tspan>
  </text>
  <g>
    <line style="fill: none; fill-opacity:0; stroke-width: 2; stroke: #000000" x1="311.236" y1="306.736" x2="341.5" y2="306.736"/>
    <polygon style="fill: #000000" points="303.736,306.736 313.736,301.736 311.236,306.736 313.736,311.736 "/>
    <polygon style="fill: none; fill-opacity:0; stroke-width: 2; stroke: #000000" points="303.736,306.736 313.736,301.736 311.236,306.736 313.736,311.736 "/>
  </g>
  <line style="fill: none; fill-opacity:0; stroke-width: 2; stroke: #000000" x1="299.5" y1="308.5" x2="79.5" y2="308.5"/>
  <text font-size="12.8" style="fill: #000000;text-anchor:start;font-family:sans-serif;font-style:normal;font-weight:normal" x="146.5" y="340">
    <tspan x="146.5" y="340">HLD</tspan>
    <tspan x="146.5" y="356">PAD</tspan>
  </text>
  <text font-size="12.8" style="fill: #000000;text-anchor:start;font-family:sans-serif;font-style:normal;font-weight:normal" x="148.5" y="289.9">
    <tspan x="148.5" y="289.9">allocated memory</tspan>
  </text>
  <line style="fill: none; fill-opacity:0; stroke-width: 2; stroke-dasharray: 4; stroke: #000000" x1="300.5" y1="341.5" x2="83" y2="342"/>
  <g>
    <line style="fill: none; fill-opacity:0; stroke-width: 2; stroke: #000000" x1="312.336" y1="340.436" x2="342.6" y2="340.436"/>
    <polygon style="fill: #000000" points="304.836,340.436 314.836,335.436 312.336,340.436 314.836,345.436 "/>
    <polygon style="fill: none; fill-opacity:0; stroke-width: 2; stroke: #000000" points="304.836,340.436 314.836,335.436 312.336,340.436 314.836,345.436 "/>
  </g>
  <text font-size="12.8" style="fill: #000000;text-anchor:start;font-family:sans-serif;font-style:normal;font-weight:normal" x="346" y="343.5">
    <tspan x="346" y="343.5">HERE+offset (Runtime)</tspan>
  </text>
  <text font-size="12.8" style="fill: #000000;text-anchor:start;font-family:sans-serif;font-style:normal;font-weight:normal" x="346" y="310">
    <tspan x="346" y="310">HERE</tspan>
  </text>
  <text font-size="12.8" style="fill: #000000;text-anchor:start;font-family:sans-serif;font-style:normal;font-weight:normal" x="163.5" y="335.5">
    <tspan x="163.5" y="335.5"></tspan>
  </text>
</svg>
